<mxfile host="app.diagrams.net" agent="Mozilla/5.0 (Windows NT 10.0; Win64; x64; rv:135.0) Gecko/20100101 Firefox/135.0" version="26.0.11">
  <diagram name="Page-1" id="peiBIBhxkPEzxUF87GDT">
    <mxGraphModel dx="1434" dy="754" grid="0" gridSize="10" guides="1" tooltips="1" connect="1" arrows="1" fold="1" page="1" pageScale="1" pageWidth="1150" pageHeight="900" background="none" math="0" shadow="1">
      <root>
        <mxCell id="0" />
        <mxCell id="1" parent="0" />
        <mxCell id="A7335-PxiJzg9wuf_6m7-18" value="" style="group;fillColor=light-dark(#541012,#541012);" parent="1" vertex="1" connectable="0">
          <mxGeometry x="400" y="26" width="330" height="410" as="geometry" />
        </mxCell>
        <mxCell id="A7335-PxiJzg9wuf_6m7-19" value="February 10th - March 3rd" style="swimlane;fontSize=22;fillColor=#f8cecc;fontColor=default;strokeColor=#b85450;gradientColor=#ea6b66;rounded=1;shadow=1;align=center;verticalAlign=middle;fontFamily=Helvetica;fontStyle=1;labelBackgroundColor=none;gradientDirection=south;swimlaneFillColor=light-dark(transparent, #541012);" parent="A7335-PxiJzg9wuf_6m7-18" vertex="1">
          <mxGeometry width="330" height="410" as="geometry" />
        </mxCell>
        <mxCell id="A7335-PxiJzg9wuf_6m7-20" value="Alpha 0.2 - Account Login/Reg" style="swimlane;childLayout=stackLayout;resizeParent=1;resizeParentMax=0;horizontal=1;startSize=20;horizontalStack=0;html=1;fontSize=17;fillColor=#e6d0de;strokeColor=#996185;shadow=1;align=center;verticalAlign=middle;fontFamily=Helvetica;fontColor=default;fontStyle=1;gradientColor=#d5739d;" parent="A7335-PxiJzg9wuf_6m7-18" vertex="1">
          <mxGeometry x="33" y="44.565217391304344" width="264" height="348.0417391304348" as="geometry" />
        </mxCell>
        <mxCell id="A7335-PxiJzg9wuf_6m7-21" value="SQL Injection" style="text;strokeColor=#36393d;fillColor=#ffcccc;align=left;verticalAlign=top;spacingLeft=4;spacingRight=4;overflow=hidden;rotatable=0;points=[[0,0.5],[1,0.5]];portConstraint=eastwest;whiteSpace=wrap;html=1;fontSize=17;fontFamily=Helvetica;fontStyle=1;" parent="A7335-PxiJzg9wuf_6m7-20" vertex="1">
          <mxGeometry y="20" width="264" height="53.47826086956521" as="geometry" />
        </mxCell>
        <mxCell id="A7335-PxiJzg9wuf_6m7-22" value="Cleartext passwords" style="text;strokeColor=#36393d;fillColor=#ffcccc;align=left;verticalAlign=top;spacingLeft=4;spacingRight=4;overflow=hidden;rotatable=0;points=[[0,0.5],[1,0.5]];portConstraint=eastwest;whiteSpace=wrap;html=1;fontSize=17;fontFamily=Helvetica;fontStyle=1;" parent="A7335-PxiJzg9wuf_6m7-20" vertex="1">
          <mxGeometry y="73.47826086956522" width="264" height="46.52" as="geometry" />
        </mxCell>
        <mxCell id="A7335-PxiJzg9wuf_6m7-23" value="User enumeration" style="text;strokeColor=#36393d;fillColor=#ffcccc;align=left;verticalAlign=top;spacingLeft=4;spacingRight=4;overflow=hidden;rotatable=0;points=[[0,0.5],[1,0.5]];portConstraint=eastwest;whiteSpace=wrap;html=1;fontSize=17;fontFamily=Helvetica;fontStyle=1;" parent="A7335-PxiJzg9wuf_6m7-20" vertex="1">
          <mxGeometry y="119.99826086956523" width="264" height="44.56521739130434" as="geometry" />
        </mxCell>
        <mxCell id="A7335-PxiJzg9wuf_6m7-24" value="Predictable session cookies" style="text;strokeColor=#36393d;fillColor=#ffcccc;align=left;verticalAlign=top;spacingLeft=4;spacingRight=4;overflow=hidden;rotatable=0;points=[[0,0.5],[1,0.5]];portConstraint=eastwest;whiteSpace=wrap;html=1;fontSize=17;fontFamily=Helvetica;fontStyle=1;" parent="A7335-PxiJzg9wuf_6m7-20" vertex="1">
          <mxGeometry y="164.56347826086957" width="264" height="53.47826086956521" as="geometry" />
        </mxCell>
        <mxCell id="A7335-PxiJzg9wuf_6m7-25" value="Error-based SQL injection" style="text;strokeColor=#36393d;fillColor=#ffcccc;align=left;verticalAlign=top;spacingLeft=4;spacingRight=4;overflow=hidden;rotatable=0;points=[[0,0.5],[1,0.5]];portConstraint=eastwest;whiteSpace=wrap;html=1;fontSize=17;fontFamily=Helvetica;fontStyle=1;" parent="A7335-PxiJzg9wuf_6m7-20" vertex="1">
          <mxGeometry y="218.0417391304348" width="264" height="39" as="geometry" />
        </mxCell>
        <mxCell id="A7335-PxiJzg9wuf_6m7-58" value="Reflection XSS" style="text;strokeColor=#36393d;fillColor=#ffcccc;align=left;verticalAlign=middle;spacingLeft=4;spacingRight=4;overflow=hidden;points=[[0,0.5],[1,0.5]];portConstraint=eastwest;rotatable=0;whiteSpace=wrap;html=1;fontSize=17;fontFamily=Helvetica;fontStyle=1;" parent="A7335-PxiJzg9wuf_6m7-20" vertex="1">
          <mxGeometry y="257.0417391304348" width="264" height="47" as="geometry" />
        </mxCell>
        <mxCell id="A7335-PxiJzg9wuf_6m7-59" value="Backdoor password" style="text;strokeColor=#36393d;fillColor=#ffcccc;align=left;verticalAlign=middle;spacingLeft=4;spacingRight=4;overflow=hidden;points=[[0,0.5],[1,0.5]];portConstraint=eastwest;rotatable=0;whiteSpace=wrap;html=1;fontSize=17;fontFamily=Helvetica;fontStyle=1;" parent="A7335-PxiJzg9wuf_6m7-20" vertex="1">
          <mxGeometry y="304.0417391304348" width="264" height="44" as="geometry" />
        </mxCell>
        <mxCell id="A7335-PxiJzg9wuf_6m7-34" value="" style="group;fillColor=light-dark(#541012,#541012);" parent="1" vertex="1" connectable="0">
          <mxGeometry x="20" y="469" width="330" height="410" as="geometry" />
        </mxCell>
        <mxCell id="A7335-PxiJzg9wuf_6m7-70" style="edgeStyle=orthogonalEdgeStyle;rounded=0;orthogonalLoop=1;jettySize=auto;html=1;exitX=1;exitY=0.5;exitDx=0;exitDy=0;" parent="A7335-PxiJzg9wuf_6m7-34" source="A7335-PxiJzg9wuf_6m7-35" edge="1">
          <mxGeometry relative="1" as="geometry">
            <mxPoint x="380" y="205.42857142857156" as="targetPoint" />
          </mxGeometry>
        </mxCell>
        <mxCell id="A7335-PxiJzg9wuf_6m7-35" value="March 10th - March 24th" style="swimlane;fontSize=22;fillColor=#f8cecc;fontColor=default;strokeColor=#b85450;gradientColor=#ea6b66;rounded=1;shadow=1;align=center;verticalAlign=middle;swimlaneFillColor=light-dark(transparent, #541012);fontFamily=Helvetica;fontStyle=1;labelBackgroundColor=none;gradientDirection=south;" parent="A7335-PxiJzg9wuf_6m7-34" vertex="1">
          <mxGeometry width="330" height="410" as="geometry" />
        </mxCell>
        <mxCell id="A7335-PxiJzg9wuf_6m7-36" value="Alpha 0.4 - View Transactions" style="swimlane;childLayout=stackLayout;resizeParent=1;resizeParentMax=0;horizontal=1;startSize=20;horizontalStack=0;html=1;fontSize=17;fillColor=#e6d0de;strokeColor=#996185;shadow=1;align=center;verticalAlign=middle;fontFamily=Helvetica;fontColor=default;fontStyle=1;gradientColor=#d5739d;" parent="A7335-PxiJzg9wuf_6m7-34" vertex="1">
          <mxGeometry x="33" y="44.565217391304344" width="264" height="340.86956521739125" as="geometry" />
        </mxCell>
        <mxCell id="A7335-PxiJzg9wuf_6m7-37" value="SQL injection" style="text;strokeColor=#b85450;fillColor=#f8cecc;align=left;verticalAlign=top;spacingLeft=4;spacingRight=4;overflow=hidden;rotatable=0;points=[[0,0.5],[1,0.5]];portConstraint=eastwest;whiteSpace=wrap;html=1;fontSize=17;fontFamily=Helvetica;fontStyle=1;" parent="A7335-PxiJzg9wuf_6m7-36" vertex="1">
          <mxGeometry y="20" width="264" height="53.47826086956521" as="geometry" />
        </mxCell>
        <mxCell id="A7335-PxiJzg9wuf_6m7-38" value="Parameter tampering" style="text;strokeColor=#b85450;fillColor=#f8cecc;align=left;verticalAlign=top;spacingLeft=4;spacingRight=4;overflow=hidden;rotatable=0;points=[[0,0.5],[1,0.5]];portConstraint=eastwest;whiteSpace=wrap;html=1;fontSize=17;fontFamily=Helvetica;fontStyle=1;" parent="A7335-PxiJzg9wuf_6m7-36" vertex="1">
          <mxGeometry y="73.47826086956522" width="264" height="53.47826086956521" as="geometry" />
        </mxCell>
        <mxCell id="A7335-PxiJzg9wuf_6m7-39" value="Error-based SQL injection" style="text;strokeColor=#b85450;fillColor=#f8cecc;align=left;verticalAlign=top;spacingLeft=4;spacingRight=4;overflow=hidden;rotatable=0;points=[[0,0.5],[1,0.5]];portConstraint=eastwest;whiteSpace=wrap;html=1;fontSize=17;fontFamily=Helvetica;fontStyle=1;" parent="A7335-PxiJzg9wuf_6m7-36" vertex="1">
          <mxGeometry y="126.95652173913044" width="264" height="44.56521739130434" as="geometry" />
        </mxCell>
        <mxCell id="A7335-PxiJzg9wuf_6m7-40" value="Reflection XSS" style="text;strokeColor=#b85450;fillColor=#f8cecc;align=left;verticalAlign=top;spacingLeft=4;spacingRight=4;overflow=hidden;rotatable=0;points=[[0,0.5],[1,0.5]];portConstraint=eastwest;whiteSpace=wrap;html=1;fontSize=17;fontFamily=Helvetica;fontStyle=1;" parent="A7335-PxiJzg9wuf_6m7-36" vertex="1">
          <mxGeometry y="171.52173913043478" width="264" height="53.47826086956521" as="geometry" />
        </mxCell>
        <mxCell id="A7335-PxiJzg9wuf_6m7-41" value="Time-based attack (will determine exactly what that entails)" style="text;strokeColor=#b85450;fillColor=#f8cecc;align=left;verticalAlign=top;spacingLeft=4;spacingRight=4;overflow=hidden;rotatable=0;points=[[0,0.5],[1,0.5]];portConstraint=eastwest;whiteSpace=wrap;html=1;fontSize=17;fontFamily=Helvetica;fontStyle=1;" parent="A7335-PxiJzg9wuf_6m7-36" vertex="1">
          <mxGeometry y="225" width="264" height="115.86956521739128" as="geometry" />
        </mxCell>
        <mxCell id="A7335-PxiJzg9wuf_6m7-42" value="" style="group;fillColor=light-dark(#541012,#541012);" parent="1" vertex="1" connectable="0">
          <mxGeometry x="400" y="465" width="330" height="410" as="geometry" />
        </mxCell>
        <mxCell id="A7335-PxiJzg9wuf_6m7-43" value="March 24th - April 7th" style="swimlane;fontSize=22;fillColor=#f8cecc;fontColor=default;strokeColor=#b85450;gradientColor=#ea6b66;rounded=1;shadow=1;align=center;verticalAlign=middle;swimlaneFillColor=light-dark(transparent, #541012);fontFamily=Helvetica;fontStyle=1;labelBackgroundColor=none;gradientDirection=south;" parent="A7335-PxiJzg9wuf_6m7-42" vertex="1">
          <mxGeometry width="330" height="410" as="geometry" />
        </mxCell>
        <mxCell id="A7335-PxiJzg9wuf_6m7-44" value="Alpha 0.5 - Transfer Funds" style="swimlane;childLayout=stackLayout;resizeParent=1;resizeParentMax=0;horizontal=1;startSize=20;horizontalStack=0;html=1;fontSize=17;fillColor=#e6d0de;strokeColor=#996185;shadow=1;align=center;verticalAlign=middle;fontFamily=Helvetica;fontColor=default;fontStyle=1;gradientColor=#d5739d;" parent="A7335-PxiJzg9wuf_6m7-42" vertex="1">
          <mxGeometry x="33" y="44.565217391304344" width="264" height="340.86956521739125" as="geometry" />
        </mxCell>
        <mxCell id="A7335-PxiJzg9wuf_6m7-45" value="SQL injection" style="text;strokeColor=#b85450;fillColor=#f8cecc;align=left;verticalAlign=top;spacingLeft=4;spacingRight=4;overflow=hidden;rotatable=0;points=[[0,0.5],[1,0.5]];portConstraint=eastwest;whiteSpace=wrap;html=1;fontSize=17;fontFamily=Helvetica;fontStyle=1;" parent="A7335-PxiJzg9wuf_6m7-44" vertex="1">
          <mxGeometry y="20" width="264" height="53.47826086956521" as="geometry" />
        </mxCell>
        <mxCell id="A7335-PxiJzg9wuf_6m7-46" value="No CSRF tokens" style="text;strokeColor=#b85450;fillColor=#f8cecc;align=left;verticalAlign=top;spacingLeft=4;spacingRight=4;overflow=hidden;rotatable=0;points=[[0,0.5],[1,0.5]];portConstraint=eastwest;whiteSpace=wrap;html=1;fontSize=17;fontFamily=Helvetica;fontStyle=1;" parent="A7335-PxiJzg9wuf_6m7-44" vertex="1">
          <mxGeometry y="73.47826086956522" width="264" height="53.47826086956521" as="geometry" />
        </mxCell>
        <mxCell id="A7335-PxiJzg9wuf_6m7-47" value="Parameter tampering" style="text;strokeColor=#b85450;fillColor=#f8cecc;align=left;verticalAlign=top;spacingLeft=4;spacingRight=4;overflow=hidden;rotatable=0;points=[[0,0.5],[1,0.5]];portConstraint=eastwest;whiteSpace=wrap;html=1;fontSize=17;fontFamily=Helvetica;fontStyle=1;" parent="A7335-PxiJzg9wuf_6m7-44" vertex="1">
          <mxGeometry y="126.95652173913044" width="264" height="44.56521739130434" as="geometry" />
        </mxCell>
        <mxCell id="A7335-PxiJzg9wuf_6m7-48" value="Error-based SQL injection" style="text;strokeColor=#b85450;fillColor=#f8cecc;align=left;verticalAlign=top;spacingLeft=4;spacingRight=4;overflow=hidden;rotatable=0;points=[[0,0.5],[1,0.5]];portConstraint=eastwest;whiteSpace=wrap;html=1;fontSize=17;fontFamily=Helvetica;fontStyle=1;" parent="A7335-PxiJzg9wuf_6m7-44" vertex="1">
          <mxGeometry y="171.52173913043478" width="264" height="53.47826086956521" as="geometry" />
        </mxCell>
        <mxCell id="A7335-PxiJzg9wuf_6m7-49" value="Reflection XSS" style="text;strokeColor=#b85450;fillColor=#f8cecc;align=left;verticalAlign=top;spacingLeft=4;spacingRight=4;overflow=hidden;rotatable=0;points=[[0,0.5],[1,0.5]];portConstraint=eastwest;whiteSpace=wrap;html=1;fontSize=17;fontFamily=Helvetica;fontStyle=1;" parent="A7335-PxiJzg9wuf_6m7-44" vertex="1">
          <mxGeometry y="225" width="264" height="115.86956521739128" as="geometry" />
        </mxCell>
        <mxCell id="A7335-PxiJzg9wuf_6m7-50" value="" style="group;fillColor=light-dark(#541012,#541012);" parent="1" vertex="1" connectable="0">
          <mxGeometry x="770" y="465" width="330" height="410" as="geometry" />
        </mxCell>
        <mxCell id="A7335-PxiJzg9wuf_6m7-51" value="April 7th - April 28th" style="swimlane;fontSize=22;fillColor=#f8cecc;fontColor=default;strokeColor=#b85450;gradientColor=#ea6b66;rounded=1;shadow=1;align=center;verticalAlign=middle;swimlaneFillColor=light-dark(transparent, #541012);fontFamily=Helvetica;fontStyle=1;labelBackgroundColor=none;gradientDirection=south;" parent="A7335-PxiJzg9wuf_6m7-50" vertex="1">
          <mxGeometry width="330" height="410" as="geometry" />
        </mxCell>
        <mxCell id="A7335-PxiJzg9wuf_6m7-52" value="Alpha 0.6 - Check Deposit" style="swimlane;childLayout=stackLayout;resizeParent=1;resizeParentMax=0;horizontal=1;startSize=20;horizontalStack=0;html=1;fontSize=17;fillColor=#e6d0de;strokeColor=#996185;shadow=1;align=center;verticalAlign=middle;fontFamily=Helvetica;fontColor=default;fontStyle=1;gradientColor=#d5739d;" parent="A7335-PxiJzg9wuf_6m7-50" vertex="1">
          <mxGeometry x="33" y="44.565217391304344" width="264" height="227" as="geometry" />
        </mxCell>
        <mxCell id="A7335-PxiJzg9wuf_6m7-53" value="Users will be able to upload pictures of checks and deposit it remotely" style="text;strokeColor=#b85450;fillColor=#f8cecc;align=left;verticalAlign=top;spacingLeft=4;spacingRight=4;overflow=hidden;rotatable=0;points=[[0,0.5],[1,0.5]];portConstraint=eastwest;whiteSpace=wrap;html=1;fontSize=17;fontFamily=Helvetica;fontStyle=1;" parent="A7335-PxiJzg9wuf_6m7-52" vertex="1">
          <mxGeometry y="20" width="264" height="108" as="geometry" />
        </mxCell>
        <mxCell id="A7335-PxiJzg9wuf_6m7-54" value="The exact vulnerabilities will be determined at a later date." style="text;strokeColor=#b85450;fillColor=#f8cecc;align=left;verticalAlign=top;spacingLeft=4;spacingRight=4;overflow=hidden;rotatable=0;points=[[0,0.5],[1,0.5]];portConstraint=eastwest;whiteSpace=wrap;html=1;fontSize=17;fontFamily=Helvetica;fontStyle=1;" parent="A7335-PxiJzg9wuf_6m7-52" vertex="1">
          <mxGeometry y="128" width="264" height="99" as="geometry" />
        </mxCell>
        <mxCell id="A7335-PxiJzg9wuf_6m7-63" value="" style="group;fillColor=light-dark(#541012,#541012);strokeColor=#b85450;" parent="1" vertex="1" connectable="0">
          <mxGeometry x="20" y="30" width="330" height="410" as="geometry" />
        </mxCell>
        <mxCell id="A7335-PxiJzg9wuf_6m7-68" style="edgeStyle=orthogonalEdgeStyle;rounded=0;orthogonalLoop=1;jettySize=auto;html=1;exitX=1;exitY=0.5;exitDx=0;exitDy=0;" parent="A7335-PxiJzg9wuf_6m7-63" source="A7335-PxiJzg9wuf_6m7-2" edge="1">
          <mxGeometry relative="1" as="geometry">
            <mxPoint x="380" y="204.42857142857156" as="targetPoint" />
          </mxGeometry>
        </mxCell>
        <mxCell id="A7335-PxiJzg9wuf_6m7-2" value="February 6th - February 10th" style="swimlane;fontSize=22;labelBackgroundColor=none;fillColor=#f8cecc;strokeColor=#b85450;startSize=23;gradientDirection=south;rounded=1;shadow=1;swimlaneFillColor=light-dark(transparent, #541012);gradientColor=#ea6b66;" parent="A7335-PxiJzg9wuf_6m7-63" vertex="1">
          <mxGeometry width="330" height="410" as="geometry" />
        </mxCell>
        <mxCell id="A7335-PxiJzg9wuf_6m7-3" value="Alpha 0.1 - Site Mockup Pages" style="swimlane;childLayout=stackLayout;resizeParent=1;resizeParentMax=0;horizontal=1;startSize=20;horizontalStack=0;html=1;fontSize=17;fillColor=#e6d0de;strokeColor=#996185;shadow=1;gradientColor=#d5739d;" parent="A7335-PxiJzg9wuf_6m7-63" vertex="1">
          <mxGeometry x="33" y="44.565217391304344" width="264" height="340.86956521739125" as="geometry">
            <mxRectangle x="33" y="44.565217391304344" width="268" height="32" as="alternateBounds" />
          </mxGeometry>
        </mxCell>
        <mxCell id="A7335-PxiJzg9wuf_6m7-12" value="Home" style="text;strokeColor=#36393d;fillColor=#ffcccc;align=left;verticalAlign=top;spacingLeft=4;spacingRight=4;overflow=hidden;rotatable=0;points=[[0,0.5],[1,0.5]];portConstraint=eastwest;whiteSpace=wrap;html=1;fontSize=17;shadow=1;" parent="A7335-PxiJzg9wuf_6m7-3" vertex="1">
          <mxGeometry y="20" width="264" height="53.47826086956521" as="geometry" />
        </mxCell>
        <mxCell id="A7335-PxiJzg9wuf_6m7-13" value="Login/Registration" style="text;strokeColor=#36393d;fillColor=#ffcccc;align=left;verticalAlign=top;spacingLeft=4;spacingRight=4;overflow=hidden;rotatable=0;points=[[0,0.5],[1,0.5]];portConstraint=eastwest;whiteSpace=wrap;html=1;fontSize=17;shadow=1;" parent="A7335-PxiJzg9wuf_6m7-3" vertex="1">
          <mxGeometry y="73.47826086956522" width="264" height="53.47826086956521" as="geometry" />
        </mxCell>
        <mxCell id="A7335-PxiJzg9wuf_6m7-14" value="Edit/close account" style="text;strokeColor=#36393d;fillColor=#ffcccc;align=left;verticalAlign=top;spacingLeft=4;spacingRight=4;overflow=hidden;rotatable=0;points=[[0,0.5],[1,0.5]];portConstraint=eastwest;whiteSpace=wrap;html=1;fontSize=17;shadow=1;" parent="A7335-PxiJzg9wuf_6m7-3" vertex="1">
          <mxGeometry y="126.95652173913044" width="264" height="44.56521739130434" as="geometry" />
        </mxCell>
        <mxCell id="A7335-PxiJzg9wuf_6m7-15" value="Mobile check deposit (file upload) " style="text;strokeColor=#36393d;fillColor=#ffcccc;align=left;verticalAlign=top;spacingLeft=4;spacingRight=4;overflow=hidden;rotatable=0;points=[[0,0.5],[1,0.5]];portConstraint=eastwest;whiteSpace=wrap;html=1;fontSize=17;shadow=1;" parent="A7335-PxiJzg9wuf_6m7-3" vertex="1">
          <mxGeometry y="171.52173913043478" width="264" height="53.47826086956521" as="geometry" />
        </mxCell>
        <mxCell id="A7335-PxiJzg9wuf_6m7-16" value="Funds transfer" style="text;fillColor=#ffcccc;align=left;verticalAlign=top;spacingLeft=4;spacingRight=4;overflow=hidden;rotatable=0;points=[[0,0.5],[1,0.5]];portConstraint=eastwest;whiteSpace=wrap;html=1;fontSize=17;strokeColor=#36393d;shadow=1;" parent="A7335-PxiJzg9wuf_6m7-3" vertex="1">
          <mxGeometry y="225" width="264" height="115.86956521739128" as="geometry" />
        </mxCell>
        <mxCell id="A7335-PxiJzg9wuf_6m7-69" style="edgeStyle=orthogonalEdgeStyle;rounded=0;orthogonalLoop=1;jettySize=auto;html=1;exitX=1;exitY=0.5;exitDx=0;exitDy=0;entryX=0;entryY=0.5;entryDx=0;entryDy=0;" parent="1" source="A7335-PxiJzg9wuf_6m7-19" edge="1">
          <mxGeometry relative="1" as="geometry">
            <mxPoint x="770" y="231" as="targetPoint" />
          </mxGeometry>
        </mxCell>
        <mxCell id="A7335-PxiJzg9wuf_6m7-76" value="" style="group;fillColor=light-dark(#541012,#541012);" parent="1" vertex="1" connectable="0">
          <mxGeometry x="770" y="30" width="330" height="410" as="geometry" />
        </mxCell>
        <mxCell id="A7335-PxiJzg9wuf_6m7-77" value="March 3rd - March 10th" style="swimlane;fontSize=22;fillColor=#f8cecc;fontColor=default;strokeColor=#b85450;gradientColor=#ea6b66;rounded=1;shadow=1;align=center;verticalAlign=middle;fontFamily=Helvetica;fontStyle=1;labelBackgroundColor=none;gradientDirection=south;swimlaneFillColor=light-dark(transparent, #541012);" parent="A7335-PxiJzg9wuf_6m7-76" vertex="1">
          <mxGeometry width="330" height="410" as="geometry" />
        </mxCell>
        <mxCell id="A7335-PxiJzg9wuf_6m7-78" value="Alpha 0.3 - Account Management" style="swimlane;childLayout=stackLayout;resizeParent=1;resizeParentMax=0;horizontal=1;startSize=20;horizontalStack=0;html=1;fontSize=16;fillColor=#e6d0de;strokeColor=#996185;shadow=1;align=center;verticalAlign=middle;fontFamily=Helvetica;fontColor=default;fontStyle=1;gradientColor=#d5739d;" parent="A7335-PxiJzg9wuf_6m7-76" vertex="1">
          <mxGeometry x="33" y="44.565217391304344" width="264" height="279.5234782608696" as="geometry" />
        </mxCell>
        <mxCell id="A7335-PxiJzg9wuf_6m7-79" value="SQL Injection" style="text;strokeColor=#36393d;fillColor=#ffcccc;align=left;verticalAlign=top;spacingLeft=4;spacingRight=4;overflow=hidden;rotatable=0;points=[[0,0.5],[1,0.5]];portConstraint=eastwest;whiteSpace=wrap;html=1;fontSize=17;fontFamily=Helvetica;fontStyle=1;" parent="A7335-PxiJzg9wuf_6m7-78" vertex="1">
          <mxGeometry y="20" width="264" height="53.47826086956521" as="geometry" />
        </mxCell>
        <mxCell id="A7335-PxiJzg9wuf_6m7-80" value="No CSRF tokens" style="text;strokeColor=#36393d;fillColor=#ffcccc;align=left;verticalAlign=top;spacingLeft=4;spacingRight=4;overflow=hidden;rotatable=0;points=[[0,0.5],[1,0.5]];portConstraint=eastwest;whiteSpace=wrap;html=1;fontSize=17;fontFamily=Helvetica;fontStyle=1;" parent="A7335-PxiJzg9wuf_6m7-78" vertex="1">
          <mxGeometry y="73.47826086956522" width="264" height="46.52" as="geometry" />
        </mxCell>
        <mxCell id="A7335-PxiJzg9wuf_6m7-81" value="Parameter tampering" style="text;strokeColor=#36393d;fillColor=#ffcccc;align=left;verticalAlign=top;spacingLeft=4;spacingRight=4;overflow=hidden;rotatable=0;points=[[0,0.5],[1,0.5]];portConstraint=eastwest;whiteSpace=wrap;html=1;fontSize=17;fontFamily=Helvetica;fontStyle=1;" parent="A7335-PxiJzg9wuf_6m7-78" vertex="1">
          <mxGeometry y="119.99826086956523" width="264" height="44.56521739130434" as="geometry" />
        </mxCell>
        <mxCell id="A7335-PxiJzg9wuf_6m7-82" value="Error-based SQL injection" style="text;strokeColor=#36393d;fillColor=#ffcccc;align=left;verticalAlign=top;spacingLeft=4;spacingRight=4;overflow=hidden;rotatable=0;points=[[0,0.5],[1,0.5]];portConstraint=eastwest;whiteSpace=wrap;html=1;fontSize=17;fontFamily=Helvetica;fontStyle=1;" parent="A7335-PxiJzg9wuf_6m7-78" vertex="1">
          <mxGeometry y="164.56347826086957" width="264" height="44" as="geometry" />
        </mxCell>
        <mxCell id="A7335-PxiJzg9wuf_6m7-84" value="Reflection XSS" style="text;strokeColor=#36393d;fillColor=#ffcccc;align=left;verticalAlign=middle;spacingLeft=4;spacingRight=4;overflow=hidden;points=[[0,0.5],[1,0.5]];portConstraint=eastwest;rotatable=0;whiteSpace=wrap;html=1;fontSize=17;fontFamily=Helvetica;fontStyle=1;" parent="A7335-PxiJzg9wuf_6m7-78" vertex="1">
          <mxGeometry y="208.56347826086957" width="264" height="70.96" as="geometry" />
        </mxCell>
        <mxCell id="VK3onBc2NMkRgM6N9jk3-1" style="edgeStyle=orthogonalEdgeStyle;rounded=0;orthogonalLoop=1;jettySize=auto;html=1;exitX=1;exitY=0.5;exitDx=0;exitDy=0;entryX=0;entryY=0.5;entryDx=0;entryDy=0;" edge="1" parent="1" source="A7335-PxiJzg9wuf_6m7-43" target="A7335-PxiJzg9wuf_6m7-51">
          <mxGeometry relative="1" as="geometry" />
        </mxCell>
      </root>
    </mxGraphModel>
  </diagram>
</mxfile>
